# Blender v2.90.0 OBJ File: 'duck.blend'
# www.blender.org
mtllib duck.mtl
o Cube
v 0.611690 2.214868 -0.508652
v 1.000000 0.242214 -1.364709
v 1.000000 0.012510 0.888893
v 0.421222 1.619585 -1.692858
v 0.733770 0.942025 1.364709
v 0.000835 1.619585 -1.692858
v 1.185951 0.742214 -1.556129
v 0.851586 0.582994 1.364709
v 0.500000 0.012510 0.888893
v 0.237481 2.433634 -0.371923
v 0.500000 0.242214 -1.364709
v 0.237481 2.482856 1.061036
v 0.374740 0.942025 1.364709
v 0.215937 1.619585 -1.692858
v 0.685951 0.742214 -1.556129
v 0.492555 0.582994 1.364709
v 0.753888 1.966449 -0.508652
v 0.346864 1.966449 -0.508652
v 0.611690 2.373473 0.439507
v 1.000000 0.012510 0.000000
v 1.021877 1.012510 0.000000
v 1.185951 0.512510 0.000000
v 0.237481 2.663338 0.344556
v 0.500000 0.012510 0.000000
v 0.753888 2.125054 0.439507
v 0.621273 2.344068 0.866284
v 1.021877 1.012510 0.682354
v 1.185951 0.512510 0.682354
v 0.237481 2.663338 0.702796
v 0.500000 0.012510 0.414366
v 0.744306 2.129130 0.866284
v 1.000000 0.012510 0.414366
v 1.000000 0.012510 -0.682354
v 0.611690 2.378942 -0.086479
v 1.021877 1.012510 -0.682354
v 1.185951 0.512510 -0.682354
v 0.237481 2.663338 -0.013683
v 0.500000 0.012510 -0.682354
v 0.753888 2.130524 -0.086479
v 0.758219 1.683634 -0.371923
v 0.758219 1.683634 0.937600
v 0.000000 1.683634 -0.371923
v 0.429209 1.683634 1.061036
v 0.429209 1.683634 -0.371923
v 0.758219 1.683634 0.344556
v 0.758219 1.683634 0.614176
v 0.758219 1.683634 -0.013683
v 0.725973 1.498474 -0.639036
v 0.725973 1.268769 1.000000
v 0.000000 1.514884 -0.639036
v 0.000000 1.268769 1.000000
v 0.311468 1.268769 1.000000
v 0.311468 1.498474 -0.639036
v 0.725973 1.268769 0.000000
v 0.725973 1.268769 0.500000
v 0.725973 1.268769 -0.500000
v 0.324930 1.763239 1.343272
v 0.396057 1.682783 1.086222
v 0.000000 1.516536 1.025186
v 0.294357 1.516536 1.025186
v 0.324930 1.667126 1.664366
v 0.000000 1.667126 1.664366
v 0.000000 1.557388 1.615855
v 0.396057 1.557388 1.615855
v 0.000000 1.449706 1.346280
v 0.294357 1.449706 1.346280
v 1.299245 1.043317 -0.518013
v 1.299245 1.043317 0.000000
v 1.463320 0.663739 -0.518013
v 1.463320 0.663739 0.000000
v 1.299245 1.043317 0.518013
v 1.463320 0.663739 0.518013
v 0.553862 2.242244 1.062920
v 0.676894 2.027307 1.062920
v 0.302085 2.129399 1.212857
v 0.346864 1.884412 1.318086
v 0.000000 2.515671 1.061036
v 0.611690 2.368004 0.848387
v 0.517989 2.227448 1.080818
v 0.660187 1.979029 1.080818
v 0.753888 2.119585 0.848387
v 0.691254 2.384125 0.882390
v 0.596746 2.259056 1.079026
v 0.719779 2.044118 1.079026
v 0.814286 2.169188 0.882390
v -0.611690 2.214868 -0.508652
v -1.000000 0.242214 -1.364709
v -1.000000 0.012510 0.888893
v -0.421222 1.619585 -1.692858
v -0.733770 0.942025 1.364709
v -1.185951 0.742214 -1.556129
v -0.851586 0.582994 1.364709
v -0.500000 0.012510 0.888893
v -0.237481 2.433634 -0.371923
v -0.500000 0.242214 -1.364709
v -0.237481 2.482856 1.061036
v -0.374740 0.942025 1.364709
v -0.215937 1.619585 -1.692858
v -0.685951 0.742214 -1.556129
v -0.492555 0.582994 1.364709
v -0.753888 1.966449 -0.508652
v -0.346864 1.966449 -0.508652
v -0.611690 2.373473 0.439507
v -1.000000 0.012510 0.000000
v -1.021877 1.012510 0.000000
v -1.185951 0.512510 0.000000
v -0.237481 2.663338 0.344556
v -0.500000 0.012510 0.000000
v -0.753888 2.125054 0.439507
v -0.621273 2.344068 0.866284
v -1.021877 1.012510 0.682354
v -1.185951 0.512510 0.682354
v -0.237481 2.663338 0.702796
v -0.500000 0.012510 0.414366
v -0.744306 2.129130 0.866284
v -1.000000 0.012510 0.414366
v -1.000000 0.012510 -0.682354
v -0.611690 2.378942 -0.086479
v -1.021877 1.012510 -0.682354
v -1.185951 0.512510 -0.682354
v -0.237481 2.663338 -0.013683
v -0.500000 0.012510 -0.682354
v -0.753888 2.130524 -0.086479
v -0.758219 1.683634 -0.371923
v -0.758219 1.683634 0.937600
v -0.429209 1.683634 1.061036
v -0.429209 1.683634 -0.371923
v -0.758219 1.683634 0.344556
v -0.758219 1.683634 0.614176
v -0.758219 1.683634 -0.013683
v -0.725973 1.498474 -0.639036
v -0.725973 1.268769 1.000000
v -0.311468 1.268769 1.000000
v -0.311468 1.498474 -0.639036
v -0.725973 1.268769 0.000000
v -0.725973 1.268769 0.500000
v -0.725973 1.268769 -0.500000
v -0.324930 1.763239 1.343272
v 0.000000 1.763239 1.343272
v -0.396057 1.682783 1.086222
v -0.294357 1.516536 1.025186
v -0.324930 1.667126 1.664366
v -0.396057 1.557388 1.615855
v -0.294357 1.449706 1.346280
v -1.299245 1.043317 -0.518013
v -1.299245 1.043317 0.000000
v -1.463320 0.663739 -0.518013
v -1.463320 0.663739 0.000000
v -1.299245 1.043317 0.518013
v -1.463320 0.663739 0.518013
v -0.503267 2.200653 1.062920
v -0.626299 1.985715 1.062920
v -0.302085 2.129399 1.212857
v -0.346864 1.884412 1.318086
v 0.000000 0.242214 -1.364709
v 0.000000 0.012510 0.888893
v 0.000000 2.466449 -0.371923
v 0.000000 0.942025 1.364709
v 0.000000 0.742214 -1.556129
v 0.000000 0.582994 1.364709
v 0.000000 1.966449 -0.508652
v 0.000000 1.884412 1.318086
v 0.000000 0.012510 0.000000
v 0.000000 2.696153 0.344556
v 0.000000 0.012510 0.414366
v 0.000000 2.696153 0.702796
v 0.000000 0.012510 -0.682354
v 0.000000 2.696153 -0.013683
v -0.611690 2.368004 0.848387
v -0.493684 2.210198 1.080818
v -0.635882 1.961779 1.080818
v -0.753888 2.119585 0.848387
v -0.691254 2.384125 0.882390
v -0.529796 2.221503 1.095824
v -0.652829 2.006565 1.095824
v -0.814286 2.169188 0.882390
vt 0.312500 0.687500
vt 0.375000 0.687500
vt 0.375000 0.750000
vt 0.312500 0.750000
vt 0.566712 0.692313
vt 0.620788 0.692313
vt 0.620788 0.692313
vt 0.566712 0.692313
vt 0.562500 0.437500
vt 0.625000 0.437500
vt 0.625000 0.500000
vt 0.562500 0.500000
vt 0.562500 0.812500
vt 0.588086 0.812500
vt 0.625000 0.812500
vt 0.625000 0.875000
vt 0.562500 0.875000
vt 0.687500 0.687500
vt 0.750000 0.687500
vt 0.750000 0.750000
vt 0.687500 0.750000
vt 0.437500 0.812500
vt 0.500000 0.812500
vt 0.500000 0.875000
vt 0.437500 0.875000
vt 0.437500 0.437500
vt 0.500000 0.437500
vt 0.500000 0.500000
vt 0.437500 0.500000
vt 0.437500 0.687500
vt 0.500000 0.687500
vt 0.500000 0.750000
vt 0.437500 0.750000
vt 0.375000 0.437500
vt 0.375000 0.500000
vt 0.375000 0.812500
vt 0.375000 0.875000
vt 0.375000 0.375000
vt 0.437500 0.375000
vt 0.500000 0.375000
vt 0.625000 0.687500
vt 0.625000 0.750000
vt 0.562500 0.375000
vt 0.625000 0.375000
vt 0.250000 0.687500
vt 0.250000 0.750000
vt 0.531250 0.375000
vt 0.531250 0.437500
vt 0.531250 0.750000
vt 0.562500 0.750000
vt 0.531250 0.812500
vt 0.562500 0.875000
vt 0.562500 0.812500
vt 0.531250 0.500000
vt 0.531250 0.687500
vt 0.562500 0.687500
vt 0.531250 0.562500
vt 0.562500 0.562500
vt 0.562500 0.625000
vt 0.531250 0.625000
vt 0.250000 0.562500
vt 0.312500 0.562500
vt 0.312500 0.625000
vt 0.250000 0.625000
vt 0.625000 0.562500
vt 0.687500 0.562500
vt 0.687500 0.625000
vt 0.625000 0.625000
vt 0.375000 0.562500
vt 0.437500 0.562500
vt 0.437500 0.625000
vt 0.375000 0.625000
vt 0.437500 0.687500
vt 0.500000 0.687500
vt 0.750000 0.562500
vt 0.750000 0.625000
vt 0.437500 0.625000
vt 0.312500 0.500000
vt 0.687500 0.500000
vt 0.750000 0.500000
vt 0.500000 0.562500
vt 0.250000 0.500000
vt 0.515625 0.500000
vt 0.515625 0.562500
vt 0.515625 0.625000
vt 0.515625 0.687500
vt 0.515625 0.750000
vt 0.515625 0.437500
vt 0.515625 0.812500
vt 0.515625 0.375000
vt 0.515625 0.875000
vt 0.500000 0.625000
vt 0.515625 0.875000
vt 0.515625 0.812500
vt 0.515625 0.812500
vt 0.515625 0.875000
vt 0.531250 0.812500
vt 0.531250 0.812500
vt 0.562500 0.812500
vt 0.562500 0.875000
vt 0.531250 0.875000
vt 0.437500 0.562500
vt 0.500000 0.562500
vt 0.500000 0.625000
vt 0.620788 0.745187
vt 0.566712 0.745188
vt 0.620788 0.745187
vt 0.566712 0.745188
vt 0.312500 0.687500
vt 0.312500 0.750000
vt 0.375000 0.750000
vt 0.375000 0.687500
vt 0.566712 0.692313
vt 0.566712 0.692313
vt 0.620788 0.692313
vt 0.620788 0.692313
vt 0.562500 0.437500
vt 0.562500 0.500000
vt 0.625000 0.500000
vt 0.625000 0.437500
vt 0.562500 0.812500
vt 0.625000 0.812500
vt 0.588086 0.812500
vt 0.687500 0.687500
vt 0.687500 0.750000
vt 0.437500 0.812500
vt 0.500000 0.812500
vt 0.437500 0.437500
vt 0.437500 0.500000
vt 0.500000 0.500000
vt 0.500000 0.437500
vt 0.437500 0.687500
vt 0.437500 0.750000
vt 0.500000 0.750000
vt 0.500000 0.687500
vt 0.375000 0.437500
vt 0.375000 0.500000
vt 0.375000 0.812500
vt 0.625000 0.687500
vt 0.625000 0.750000
vt 0.531250 0.437500
vt 0.531250 0.750000
vt 0.531250 0.812500
vt 0.562500 0.750000
vt 0.562500 0.812500
vt 0.531250 0.500000
vt 0.531250 0.687500
vt 0.562500 0.687500
vt 0.531250 0.562500
vt 0.531250 0.625000
vt 0.562500 0.625000
vt 0.562500 0.562500
vt 0.312500 0.625000
vt 0.312500 0.562500
vt 0.625000 0.562500
vt 0.625000 0.625000
vt 0.687500 0.625000
vt 0.687500 0.562500
vt 0.375000 0.562500
vt 0.375000 0.625000
vt 0.437500 0.625000
vt 0.437500 0.562500
vt 0.500000 0.687500
vt 0.437500 0.687500
vt 0.437500 0.625000
vt 0.312500 0.500000
vt 0.687500 0.500000
vt 0.500000 0.562500
vt 0.515625 0.500000
vt 0.515625 0.562500
vt 0.515625 0.625000
vt 0.515625 0.687500
vt 0.515625 0.750000
vt 0.515625 0.437500
vt 0.515625 0.812500
vt 0.500000 0.625000
vt 0.515625 0.812500
vt 0.515625 0.812500
vt 0.531250 0.812500
vt 0.531250 0.812500
vt 0.562500 0.812500
vt 0.437500 0.562500
vt 0.500000 0.625000
vt 0.500000 0.562500
vt 0.620788 0.745187
vt 0.566712 0.745188
vt 0.566712 0.745188
vt 0.620788 0.745187
vn 0.0000 -1.0000 0.0000
vn 0.1700 0.0973 -0.9806
vn -0.1322 0.1410 -0.9811
vn 0.0217 0.3873 0.9217
vn 0.1225 0.8863 0.4465
vn 0.0000 0.0000 1.0000
vn 0.0000 -0.1540 -0.9881
vn 0.8718 0.2861 0.3976
vn 0.9312 -0.2294 0.2831
vn 0.0000 -0.3575 -0.9339
vn 0.0000 -0.6405 0.7679
vn 0.4934 0.7290 0.4745
vn 0.0154 0.2736 -0.9617
vn -0.0000 -0.4353 -0.9003
vn 0.4890 -0.4331 0.7572
vn 0.0000 0.2035 0.9791
vn 0.9831 0.0461 0.1774
vn 1.0000 0.0097 0.0001
vn 0.6086 0.7934 0.0049
vn 0.9373 -0.3486 0.0000
vn 0.4599 0.1716 0.8712
vn 0.1369 0.9906 0.0000
vn 0.8679 0.4968 0.0052
vn 1.0000 0.0098 0.0001
vn 0.6148 0.7886 0.0056
vn 0.4787 -0.8780 0.0000
vn 0.8679 0.4968 0.0066
vn 0.0000 -0.9477 -0.3190
vn 0.8521 0.4878 -0.1896
vn 0.1155 0.8362 -0.5362
vn 0.8298 0.5579 -0.0168
vn 0.9249 -0.3646 -0.1076
vn 0.4284 0.8067 -0.4070
vn 0.9999 0.0112 -0.0024
vn 0.9972 -0.0678 -0.0313
vn 0.9970 -0.0775 0.0000
vn 0.0000 0.8219 -0.5697
vn 0.1637 -0.0280 0.9861
vn 0.0184 0.8316 -0.5550
vn 0.0310 0.9940 0.1051
vn 0.0000 0.7448 0.6673
vn 0.0000 0.9935 0.1142
vn 0.7636 0.6063 0.2222
vn 0.6547 0.7559 0.0000
vn 0.8499 0.5231 -0.0633
vn 0.0000 -0.9790 -0.2038
vn -0.0102 -0.2019 0.9794
vn 0.0000 -0.1011 0.9949
vn 0.8875 -0.2376 0.3949
vn 0.0000 -0.4043 0.9146
vn 0.0000 -0.9287 0.3710
vn 0.8781 0.4631 0.1206
vn 0.0000 0.9580 0.2868
vn 0.8582 -0.5007 -0.1131
vn 0.9179 0.3968 0.0000
vn -0.1104 0.9939 0.0000
vn 0.4599 0.1716 -0.8712
vn 0.3253 0.4228 0.8458
vn 0.4490 0.3459 0.8239
vn 0.1670 0.8303 0.5317
vn 0.3660 0.2095 0.9067
vn 0.9497 -0.1170 0.2905
vn 0.8511 0.4872 0.1959
vn 0.6999 0.4007 0.5912
vn -0.2892 -0.1655 0.9428
vn 0.4939 -0.8256 -0.2730
vn -0.4939 0.8256 0.2730
vn -0.1700 0.0973 -0.9806
vn 0.1322 0.1410 -0.9811
vn -0.0217 0.3873 0.9217
vn -0.1225 0.8863 0.4465
vn -0.8718 0.2861 0.3976
vn -0.9312 -0.2294 0.2831
vn -0.5019 0.7035 0.5032
vn -0.0154 0.2736 -0.9617
vn -0.4958 -0.4223 0.7588
vn -0.9734 0.0552 0.2223
vn -1.0000 0.0097 0.0001
vn -0.6086 0.7934 0.0049
vn -0.9373 -0.3486 0.0000
vn -0.4599 0.1716 0.8712
vn -0.1369 0.9906 0.0000
vn -0.8679 0.4968 0.0052
vn -1.0000 0.0098 0.0001
vn -0.6148 0.7886 0.0056
vn -0.4787 -0.8780 0.0000
vn -0.8679 0.4968 0.0066
vn -0.8521 0.4878 -0.1896
vn -0.1155 0.8362 -0.5362
vn -0.8298 0.5579 -0.0168
vn -0.9249 -0.3646 -0.1076
vn -0.4284 0.8067 -0.4070
vn -0.9999 0.0112 -0.0024
vn -0.9972 -0.0678 -0.0313
vn -0.9970 -0.0775 0.0000
vn -0.1637 -0.0280 0.9861
vn -0.0184 0.8316 -0.5550
vn -0.0309 0.9940 0.1051
vn -0.7636 0.6063 0.2222
vn -0.6547 0.7559 0.0000
vn -0.8499 0.5231 -0.0633
vn 0.0102 -0.2019 0.9794
vn -0.8875 -0.2376 0.3949
vn -0.8781 0.4631 0.1206
vn -0.8582 -0.5007 -0.1131
vn -0.9179 0.3968 0.0000
vn 0.1104 0.9939 0.0000
vn -0.4599 0.1716 -0.8712
vn -0.3866 0.4227 0.8197
vn -0.4929 0.3561 0.7939
vn -0.6691 0.3830 0.6369
vn -0.8511 0.4872 0.1959
vn -0.6030 0.3452 0.7192
vn 0.6092 -0.3487 0.7122
vn -0.5899 -0.7861 -0.1847
vn 0.5899 0.7861 0.1847
usemtl Material
s off
f 30/1/1 32/2/1 3/3/1 9/4/1
f 31/5/2 26/6/2 82/7/2 85/8/2
f 18/9/3 10/10/3 1/11/3 17/12/3
f 76/13/4 75/14/4 12/15/4 77/16/4 162/17/4
f 29/18/5 166/19/5 77/20/5 12/21/5
f 16/22/6 13/23/6 158/24/6 160/25/6
f 15/26/7 14/27/7 4/28/7 7/29/7
f 28/30/8 27/31/8 5/32/8 8/33/8
f 32/2/9 28/30/9 8/33/9 3/3/9
f 11/34/10 15/26/10 7/29/10 2/35/10
f 9/36/11 16/22/11 160/25/11 156/37/11
f 3/3/11 8/33/11 16/22/11 9/36/11
f 155/38/10 159/39/10 15/26/10 11/34/10
f 159/39/7 6/40/7 14/27/7 15/26/7
f 8/33/6 5/32/6 13/23/6 16/22/6
f 78/41/12 29/18/12 12/21/12 79/42/12
f 161/43/13 157/44/13 10/10/13 18/9/13
f 165/45/1 30/1/1 9/4/1 156/46/1
f 42/47/14 161/43/14 18/9/14 44/48/14
f 41/49/15 80/50/15 76/13/15 43/51/15
f 76/13/16 162/17/16 139/52/16 57/53/16
f 44/48/14 18/9/14 17/12/14 40/54/14
f 46/55/17 81/56/17 80/50/17 41/49/17
f 47/57/18 39/58/18 25/59/18 45/60/18
f 167/61/1 38/62/1 24/63/1 163/64/1
f 34/65/19 37/66/19 23/67/19 19/68/19
f 33/69/20 36/70/20 22/71/20 20/72/20
f 27/31/21 28/30/21 72/73/21 71/74/21
f 37/66/22 168/75/22 164/76/22 23/67/22
f 39/58/23 34/65/23 19/68/23 25/59/23
f 38/62/1 33/69/1 20/72/1 24/63/1
f 45/60/24 25/59/24 81/56/24 46/55/24
f 163/64/1 24/63/1 30/1/1 165/45/1
f 19/68/25 23/67/25 29/18/25 78/41/25
f 20/72/20 22/71/20 28/30/20 32/2/20
f 28/30/26 22/71/26 70/77/26 72/73/26
f 23/67/22 164/76/22 166/19/22 29/18/22
f 25/59/27 19/68/27 78/41/27 81/56/27
f 24/63/1 20/72/1 32/2/1 30/1/1
f 11/78/28 2/35/28 33/69/28 38/62/28
f 17/12/29 1/11/29 34/65/29 39/58/29
f 10/79/30 157/80/30 168/75/30 37/66/30
f 7/29/31 4/28/31 35/81/31 36/70/31
f 2/35/32 7/29/32 36/70/32 33/69/32
f 1/11/33 10/79/33 37/66/33 34/65/33
f 155/82/28 11/78/28 38/62/28 167/61/28
f 40/54/34 17/12/34 39/58/34 47/57/34
f 48/83/35 40/54/35 47/57/35 56/84/35
f 54/85/36 45/60/36 46/55/36 55/86/36
f 56/84/36 47/57/36 45/60/36 54/85/36
f 55/86/36 46/55/36 41/49/36 49/87/36
f 53/88/37 44/48/37 40/54/37 48/83/37
f 49/87/38 41/49/38 43/51/38 52/89/38
f 50/90/39 42/47/39 44/48/39 53/88/39
f 6/40/40 50/90/40 53/88/40 14/27/40
f 5/32/41 49/87/41 52/89/41 13/23/41
f 13/23/41 52/89/41 51/91/41 158/24/41
f 14/27/42 53/88/42 48/83/42 4/28/42
f 27/31/43 55/86/43 49/87/43 5/32/43
f 35/81/44 56/84/44 54/85/44 21/92/44
f 21/92/44 54/85/44 55/86/44 27/31/44
f 4/28/45 48/83/45 56/84/45 35/81/45
f 59/93/46 60/94/46 66/95/46 65/96/46
f 52/89/47 43/51/47 58/97/47 60/94/47
f 51/91/48 52/89/48 60/94/48 59/93/48
f 43/51/49 76/13/49 57/53/49 58/97/49
f 64/98/50 61/99/50 62/100/50 63/101/50
f 66/95/51 64/98/51 63/101/51 65/96/51
f 58/97/52 57/53/52 61/99/52 64/98/52
f 57/53/53 139/52/53 62/100/53 61/99/53
f 60/94/54 58/97/54 64/98/54 66/95/54
f 69/102/55 67/103/55 68/104/55 70/77/55
f 70/77/55 68/104/55 71/74/55 72/73/55
f 35/81/56 21/92/56 68/104/56 67/103/56
f 36/70/57 35/81/57 67/103/57 69/102/57
f 21/92/56 27/31/56 71/74/56 68/104/56
f 22/71/26 36/70/26 69/102/26 70/77/26
f 75/14/58 79/42/58 12/15/58
f 80/50/59 79/42/59 75/14/59 76/13/59
f 73/105/60 26/6/60 78/41/60 79/42/60
f 74/106/61 73/105/61 79/42/61 80/50/61
f 31/5/62 74/106/62 80/50/62 81/56/62
f 26/6/63 31/5/63 81/56/63 78/41/63
f 85/8/64 82/7/64 83/107/64 84/108/64
f 73/105/65 74/106/65 84/108/65 83/107/65
f 74/106/66 31/5/66 85/8/66 84/108/66
f 26/6/67 73/105/67 83/107/67 82/7/67
f 114/109/1 93/110/1 88/111/1 116/112/1
f 115/113/68 176/114/68 173/115/68 110/116/68
f 102/117/69 101/118/69 86/119/69 94/120/69
f 154/121/70 162/17/70 77/16/70 96/122/70 153/123/70
f 113/124/71 96/125/71 77/20/71 166/19/71
f 100/126/6 160/25/6 158/24/6 97/127/6
f 99/128/7 91/129/7 89/130/7 98/131/7
f 112/132/72 92/133/72 90/134/72 111/135/72
f 116/112/73 88/111/73 92/133/73 112/132/73
f 95/136/10 87/137/10 91/129/10 99/128/10
f 93/138/11 156/37/11 160/25/11 100/126/11
f 88/111/11 93/138/11 100/126/11 92/133/11
f 155/38/10 95/136/10 99/128/10 159/39/10
f 159/39/7 99/128/7 98/131/7 6/40/7
f 92/133/6 100/126/6 97/127/6 90/134/6
f 169/139/74 170/140/74 96/125/74 113/124/74
f 161/43/75 102/117/75 94/120/75 157/44/75
f 165/45/1 156/46/1 93/110/1 114/109/1
f 42/47/14 127/141/14 102/117/14 161/43/14
f 125/142/76 126/143/76 154/121/76 171/144/76
f 154/121/16 138/145/16 139/52/16 162/17/16
f 127/141/14 124/146/14 101/118/14 102/117/14
f 129/147/77 125/142/77 171/144/77 172/148/77
f 130/149/78 128/150/78 109/151/78 123/152/78
f 167/61/1 163/64/1 108/153/1 122/154/1
f 118/155/79 103/156/79 107/157/79 121/158/79
f 117/159/80 104/160/80 106/161/80 120/162/80
f 111/135/81 149/163/81 150/164/81 112/132/81
f 121/158/82 107/157/82 164/76/82 168/75/82
f 123/152/83 109/151/83 103/156/83 118/155/83
f 122/154/1 108/153/1 104/160/1 117/159/1
f 128/150/84 129/147/84 172/148/84 109/151/84
f 163/64/1 165/45/1 114/109/1 108/153/1
f 103/156/85 169/139/85 113/124/85 107/157/85
f 104/160/80 116/112/80 112/132/80 106/161/80
f 112/132/86 150/164/86 148/165/86 106/161/86
f 107/157/82 113/124/82 166/19/82 164/76/82
f 109/151/87 172/148/87 169/139/87 103/156/87
f 108/153/1 114/109/1 116/112/1 104/160/1
f 95/166/28 122/154/28 117/159/28 87/137/28
f 101/118/88 123/152/88 118/155/88 86/119/88
f 94/167/89 121/158/89 168/75/89 157/80/89
f 91/129/90 120/162/90 119/168/90 89/130/90
f 87/137/91 117/159/91 120/162/91 91/129/91
f 86/119/92 118/155/92 121/158/92 94/167/92
f 155/82/28 167/61/28 122/154/28 95/166/28
f 124/146/93 130/149/93 123/152/93 101/118/93
f 131/169/94 137/170/94 130/149/94 124/146/94
f 135/171/95 136/172/95 129/147/95 128/150/95
f 137/170/95 135/171/95 128/150/95 130/149/95
f 136/172/95 132/173/95 125/142/95 129/147/95
f 134/174/37 131/169/37 124/146/37 127/141/37
f 132/173/96 133/175/96 126/143/96 125/142/96
f 50/90/97 134/174/97 127/141/97 42/47/97
f 6/40/98 98/131/98 134/174/98 50/90/98
f 90/134/41 97/127/41 133/175/41 132/173/41
f 97/127/41 158/24/41 51/91/41 133/175/41
f 98/131/42 89/130/42 131/169/42 134/174/42
f 111/135/99 90/134/99 132/173/99 136/172/99
f 119/168/100 105/176/100 135/171/100 137/170/100
f 105/176/100 111/135/100 136/172/100 135/171/100
f 89/130/101 119/168/101 137/170/101 131/169/101
f 59/93/46 65/96/46 144/177/46 141/178/46
f 133/175/102 141/178/102 140/179/102 126/143/102
f 51/91/48 59/93/48 141/178/48 133/175/48
f 126/143/103 140/179/103 138/145/103 154/121/103
f 143/180/50 63/101/50 62/100/50 142/181/50
f 144/177/51 65/96/51 63/101/51 143/180/51
f 140/179/104 143/180/104 142/181/104 138/145/104
f 138/145/53 142/181/53 62/100/53 139/52/53
f 141/178/105 144/177/105 143/180/105 140/179/105
f 147/182/106 148/165/106 146/183/106 145/184/106
f 148/165/106 150/164/106 149/163/106 146/183/106
f 119/168/107 145/184/107 146/183/107 105/176/107
f 120/162/108 147/182/108 145/184/108 119/168/108
f 105/176/107 146/183/107 149/163/107 111/135/107
f 106/161/86 148/165/86 147/182/86 120/162/86
f 153/123/109 96/122/109 170/140/109
f 171/144/110 154/121/110 153/123/110 170/140/110
f 151/185/111 170/140/111 169/139/111 110/116/111
f 152/186/112 171/144/112 170/140/112 151/185/112
f 115/113/111 172/148/111 171/144/111 152/186/111
f 110/116/112 169/139/112 172/148/112 115/113/112
f 176/114/113 175/187/113 174/188/113 173/115/113
f 151/185/114 174/188/114 175/187/114 152/186/114
f 152/186/115 175/187/115 176/114/115 115/113/115
f 110/116/116 173/115/116 174/188/116 151/185/116
