# Blender v2.90.0 OBJ File: 'Rock.blend'
# www.blender.org
mtllib Rock.mtl
o Cube
v 11.161493 51.800117 -10.300122
v 23.329401 -6.051271 -20.448835
v 10.462271 60.014847 10.363328
v 35.189705 -6.658659 23.819628
v -11.338689 51.922291 -10.460946
v -21.663141 -6.403378 -18.897326
v -9.950237 59.679214 9.981862
v -31.586143 -7.435082 23.749025
v -21.088486 29.188829 31.291332
v 16.057199 22.633106 24.772039
v -20.324417 -30.237896 -9.140371
v -23.749187 -13.920671 37.411274
v 19.891615 -25.858820 -8.796607
v 14.767076 6.998452 42.437180
v 24.234768 -15.535907 38.533173
v -15.460544 8.934719 45.287075
v -30.289656 -7.025934 4.455410
v 0.000376 -5.575364 -34.137444
v 13.951057 25.131874 -12.815338
v -15.601436 44.176411 17.004150
v 30.639717 9.790377 27.378122
v -17.177130 26.328547 -15.611382
v 0.008510 65.468285 11.386081
v 12.171533 58.428085 1.170248
v 18.609957 14.464149 38.199848
v -13.422847 59.171410 0.973776
v 0.000449 57.305271 -12.861947
v 34.421631 -6.161931 3.762126
v -30.851278 10.031528 27.375410
v 13.948578 42.910194 15.454993
v 0.035283 31.394354 27.191713
v -25.177708 -24.942276 14.387969
v -0.000000 -22.319845 -12.426144
v 21.395430 -3.619710 48.019287
v 0.006456 -22.014074 44.720856
v 25.466730 -27.174932 14.590116
v -22.603928 -3.189184 52.157436
v 0.034887 10.188561 44.246933
v 36.415031 -15.424511 33.848557
v -24.265717 -22.043095 -17.353153
v -36.555264 -15.386229 33.875488
v 23.037483 -20.810274 -16.205256
v -18.777651 15.049722 38.539402
v -0.000016 67.557144 0.631217
v -38.575165 -23.124176 8.188386
v -21.709202 26.225826 6.144159
v 27.332838 -1.064039 39.668934
v 24.605564 27.070852 5.965608
v 0.000967 27.743956 -26.234690
v 0.022672 49.430428 19.276403
v 0.028307 -4.223058 50.855721
v 0.001275 -24.752340 15.830684
v 31.156048 -19.728302 8.902690
v 0.042571 21.436792 38.070316
v -31.404627 0.782240 41.832386
v 0.000033 -25.311348 -30.706528
vt 0.666667 0.458333
vt 0.755208 0.494792
vt 0.751732 0.625694
vt 0.633201 0.630903
vt 0.875000 0.500000
vt 0.875000 0.625000
vt 0.875000 0.750000
vt 0.755208 0.755208
vt 0.666667 0.791667
vt 0.416694 0.058333
vt 0.416196 0.126524
vt 0.382479 0.130068
vt 0.399281 0.044579
vt 0.416670 0.247222
vt 0.380209 0.249653
vt 0.375000 0.250000
vt 0.377607 0.130208
vt 0.395856 0.041667
vt 0.460080 0.032253
vt 0.505409 0.102024
vt 0.520946 0.000000
vt 0.565169 0.000000
vt 0.625000 0.000000
vt 0.625000 0.125000
vt 0.625000 0.250000
vt 0.505215 0.244097
vt 0.416502 0.691667
vt 0.457094 0.721566
vt 0.438191 0.752334
vt 0.393052 0.713233
vt 0.499567 0.780556
vt 0.479492 0.793847
vt 0.468333 0.812500
vt 0.430208 0.794367
vt 0.333333 0.791667
vt 0.416648 0.502778
vt 0.508641 0.502604
vt 0.504913 0.649476
vt 0.416116 0.623476
vt 0.550972 0.764757
vt 0.506072 0.374132
vt 0.416665 0.375000
vt 0.630208 0.369792
vt 0.520946 1.000000
vt 0.517975 0.878820
vt 0.563657 0.877257
vt 0.565169 1.000000
vt 0.630208 0.880208
vt 0.625000 1.000000
vt 0.433540 0.880884
vt 0.369792 0.880208
vt 0.477134 0.882909
vt 0.479279 1.000000
vt 0.434961 1.000000
vt 0.375000 1.000000
vt 0.125000 0.500000
vt 0.244792 0.494792
vt 0.244792 0.625000
vt 0.125000 0.625000
vt 0.333333 0.458333
vt 0.333765 0.624132
vt 0.244792 0.755208
vt 0.125000 0.750000
vt 0.376812 0.620800
vt 0.375866 0.496875
vt 0.497201 0.880710
vt 0.500130 1.000000
vt 0.442874 0.008584
vt 0.502737 0.000000
vt 0.440175 0.005208
vt 0.500135 0.000000
vt 0.379340 0.374132
vt 0.369792 0.369792
vn 0.5076 0.7041 -0.4966
vn -0.4546 0.7106 -0.5369
vn -0.5171 0.8411 0.1584
vn 0.5415 0.8380 0.0673
vn -0.8884 0.4551 -0.0599
vn -0.8830 0.2354 -0.4060
vn -0.4380 -0.8940 -0.0942
vn -0.1478 -0.9194 0.3645
vn -0.9661 0.1951 -0.1689
vn -0.9156 0.4014 -0.0247
vn -0.9365 0.3105 0.1631
vn -0.9444 0.2278 -0.2373
vn -0.9402 0.2066 -0.2709
vn 0.8939 0.2920 0.3401
vn 0.6508 0.6012 0.4638
vn 0.4693 0.4761 0.7437
vn 0.5917 -0.1882 0.7839
vn 0.8407 0.3175 -0.4387
vn 0.8885 0.2172 -0.4041
vn 0.8977 0.3496 0.2681
vn 0.7207 0.5258 0.4517
vn 0.9589 0.2815 -0.0366
vn -0.5526 0.1755 -0.8147
vn -0.4560 0.3263 -0.8280
vn 0.5760 0.2486 -0.7787
vn 0.5809 0.2695 -0.7681
vn -0.0738 0.5648 0.8219
vn 0.3770 0.3972 0.8367
vn 0.3537 0.3733 0.8576
vn -0.3147 0.4511 0.8351
vn 0.2393 -0.4340 0.8685
vn 0.1457 0.4641 0.8737
vn 0.0525 0.4410 0.8960
vn -0.2150 -0.5712 0.7922
vn 0.1778 -0.9815 0.0709
vn -0.1271 -0.9902 -0.0582
vn 0.1175 -0.9575 0.2633
vn -0.1986 -0.9460 0.2562
vn 0.9084 -0.2298 -0.3493
vn 0.9787 -0.1688 -0.1168
vn 0.4906 -0.8396 0.2334
vn 0.6903 -0.6959 -0.1983
vn 0.3806 0.7601 0.5267
vn -0.0372 0.5984 0.8003
vn -0.0943 0.5828 0.8071
vn 0.1813 0.4495 0.8747
vn -0.6987 0.4578 0.5498
vn -0.9768 0.1986 -0.0805
vn -0.5123 -0.4807 0.7117
vn -0.4482 0.5933 0.6687
vn -0.5299 -0.0798 -0.8443
vn 0.5220 -0.1894 -0.8316
vn 0.0532 -0.9959 -0.0732
vn 0.0288 -0.9800 -0.1968
usemtl Material
s off
f 1/1/1 27/2/1 44/3/1 24/4/1
f 27/2/2 5/5/2 26/6/2 44/3/2
f 44/3/3 26/6/3 7/7/3 23/8/3
f 24/4/4 44/3/4 23/8/4 3/9/4
f 8/10/5 17/11/5 45/12/5 41/13/5
f 17/11/6 6/14/6 40/15/6 45/12/6
f 45/12/7 40/15/7 11/16/7 32/17/7
f 41/13/8 45/12/8 32/17/8 12/18/8
f 8/10/9 29/19/9 46/20/9 17/11/9
f 9/21/10 20/22/10 46/20/10 29/19/10
f 7/23/11 26/24/11 46/20/11 20/22/11
f 5/25/12 22/26/12 46/20/12 26/24/12
f 6/14/13 17/11/13 46/20/13 22/26/13
f 4/27/14 21/28/14 47/29/14 39/30/14
f 21/28/15 10/31/15 25/32/15 47/29/15
f 47/29/16 25/32/16 14/33/16 34/34/16
f 39/30/17 47/29/17 34/34/17 15/35/17
f 2/36/18 19/37/18 48/38/18 28/39/18
f 1/1/19 24/4/19 48/38/19 19/37/19
f 3/9/20 30/40/20 48/38/20 24/4/20
f 10/31/21 21/28/21 48/38/21 30/40/21
f 4/27/22 28/39/22 48/38/22 21/28/22
f 6/14/23 22/26/23 49/41/23 18/42/23
f 22/26/24 5/25/24 27/43/24 49/41/24
f 49/41/25 27/43/25 1/1/25 19/37/25
f 18/42/26 49/41/26 19/37/26 2/36/26
f 9/44/27 31/45/27 50/46/27 20/47/27
f 31/45/28 10/31/28 30/40/28 50/46/28
f 50/46/29 30/40/29 3/9/29 23/48/29
f 20/47/30 50/46/30 23/48/30 7/49/30
f 15/35/31 34/34/31 51/50/31 35/51/31
f 34/34/32 14/33/32 38/52/32 51/50/32
f 51/50/33 38/52/33 16/53/33 37/54/33
f 35/51/34 51/50/34 37/54/34 12/55/34
f 11/56/35 33/57/35 52/58/35 32/59/35
f 33/57/36 13/60/36 36/61/36 52/58/36
f 52/58/37 36/61/37 15/35/37 35/62/37
f 32/59/38 52/58/38 35/62/38 12/63/38
f 2/36/39 28/39/39 53/64/39 42/65/39
f 28/39/40 4/27/40 39/30/40 53/64/40
f 53/64/41 39/30/41 15/35/41 36/61/41
f 42/65/42 53/64/42 36/61/42 13/60/42
f 10/31/43 31/45/43 54/66/43 25/32/43
f 31/45/44 9/44/44 43/67/44 54/66/44
f 54/66/45 43/67/45 16/53/45 38/52/45
f 25/32/46 54/66/46 38/52/46 14/33/46
f 9/21/47 29/19/47 55/68/47 43/69/47
f 29/19/48 8/10/48 41/13/48 55/68/48
f 55/68/49 41/13/49 12/18/49 37/70/49
f 43/69/50 55/68/50 37/70/50 16/71/50
f 6/14/51 18/42/51 56/72/51 40/15/51
f 18/42/52 2/36/52 42/65/52 56/72/52
f 56/72/53 42/65/53 13/60/53 33/73/53
f 40/15/54 56/72/54 33/73/54 11/16/54
